{"title":"Iggy Azalea Ft. T.I. - Change Your Life [Explicit] 1080p [Sbyky]","uid":9171565,"size":93725285,"categoryP":"video","categoryS":"music_videos","magnet":"?xt=urn:btih:1c8186b2eadc3e7dff29ddb1475cccd8906c6c53&amp;dn=Iggy+Azalea+Ft.+T.I.+-+Change+Your+Life+%5BExplicit%5D+1080p+%5BSbyky%5D&amp;tr=udp%3A%2F%2Ftracker.openbittorrent.com%3A80&amp;tr=udp%3A%2F%2Fopen.demonii.com%3A1337&amp;tr=udp%3A%2F%2Ftracker.coppersurfer.tk%3A6969&amp;tr=udp%3A%2F%2Fexodus.desync.com%3A6969","seeders":6,"leechers":0,"uploader":"Sbyky","files":1,"time":1384080604,"description":"[IMG]http://cdn.piczend.com/images/eqYMNvdq/1383938817_changeyourlifeexplicit.jpg[/IMG]\n\nGeneral\nComplete name                            : Iggy Azalea Ft. T.I. - Change Your Life [Explicit] 1080p [Sbyky].MP4\nFormat                                   : MPEG-4\nFormat profile                           : Base Media / Version 2\nCodec ID                                 : mp42\nFile size                                : 89.4 MiB\nDuration                                 : 3mn 39s\nOverall bit rate mode                    : Variable\nOverall bit rate                         : 3 411 Kbps\nEncoded date                             : UTC 2013-09-08 06:07:11\nTagged date                              : UTC 2013-09-08 06:07:11\n\nVideo\nID                                       : 1\nFormat                                   : AVC\nFormat/Info                              : Advanced Video Codec\nFormat profile                           : &lt;a class=&quot;__cf_email__&quot; href=&quot;/cdn-cgi/l/email-protection&quot; data-cfemail=&quot;521a3b353a121e667c62&quot;&gt;[email&amp;#160;protected]&lt;/a&gt;&lt;script cf-hash='f9e31' type=&quot;text/javascript&quot;&gt;\n/* &lt;![CDATA[ */!function(){try{var t=&quot;currentScript&quot;in document?document.currentScript:function(){for(var t=document.getElementsByTagName(&quot;script&quot;),e=t.length;e--;)if(t[e].getAttribute(&quot;cf-hash&quot;))return t[e]}();if(t&amp;&amp;t.previousSibling){var e,r,n,i,c=t.previousSibling,a=c.getAttribute(&quot;data-cfemail&quot;);if(a){for(e=&quot;&quot;,r=parseInt(a.substr(0,2),16),n=2;a.length-n;n+=2)i=parseInt(a.substr(n,2),16)^r,e+=String.fromCharCode(i);e=document.createTextNode(e),c.parentNode.replaceChild(e,c)}}}catch(u){}}();/* ]]&gt; */&lt;/script&gt;\nFormat settings, CABAC                   : Yes\nFormat settings, ReFrames                : 2 frames\nCodec ID                                 : avc1\nCodec ID/Info                            : Advanced Video Coding\nDuration                                 : 3mn 39s\nSource duration                          : 3mn 39s\nBit rate                                 : 3 156 Kbps\nWidth                                    : 1 920 pixels\nHeight                                   : 1 080 pixels\nDisplay aspect ratio                     : 16:9\nFrame rate mode                          : Variable\nFrame rate                               : 23.976 fps\nMinimum frame rate                       : 23.974 fps\nMaximum frame rate                       : 2 000.000 fps\nColor space                              : YUV\nChroma subsampling                       : 4:2:0\nBit depth                                : 8 bits\nScan type                                : Progressive\nBits/(Pixel*Frame)                       : 0.063\nStream size                              : 82.7 MiB (93%)\nSource stream size                       : 82.7 MiB (93%)\nEncoded date                             : UTC 2013-09-08 06:07:11\nTagged date                              : UTC 2013-09-08 06:07:11\n\nAudio\nID                                       : 2\nFormat                                   : AAC\nFormat/Info                              : Advanced Audio Codec\nFormat profile                           : LC\nCodec ID                                 : 40\nDuration                                 : 3mn 39s\nBit rate mode                            : Variable\nBit rate                                 : 254 Kbps\nChannel(s)                               : 2 channels\nChannel positions                        : Front: L R\nSampling rate                            : 44.1 KHz\nCompression mode                         : Lossy\nStream size                              : 6.65 MiB (7%)\nEncoded date                             : UTC 2013-09-08 06:06:54\nTagged date                              : UTC 2013-09-08 06:06:54\n\nShared By Sbyky\n[IMG]http://cdn.piczend.com/images/X3Ag13N3/1379453786_saythanks.gif[/IMG]\n[IMG]http://cdn.piczend.com/images/gGqhX2S8/1379453780_keepseeding.gif[/IMG]","torrent":{"xt":"urn:btih:1c8186b2eadc3e7dff29ddb1475cccd8906c6c53","amp;dn":"Iggy+Azalea+Ft.+T.I.+-+Change+Your+Life+%5BExplicit%5D+1080p+%5BSbyky%5D","amp;tr":["udp%3A%2F%2Ftracker.openbittorrent.com%3A80","udp%3A%2F%2Fopen.demonii.com%3A1337","udp%3A%2F%2Ftracker.coppersurfer.tk%3A6969","udp%3A%2F%2Fexodus.desync.com%3A6969"],"infoHash":"1c8186b2eadc3e7dff29ddb1475cccd8906c6c53","infoHashBuffer":{"type":"Buffer","data":[28,129,134,178,234,220,62,125,255,41,221,177,71,92,204,216,144,108,108,83]},"announce":[],"urlList":[]}}